<?xml version="1.0" standalone="no"?>
<!DOCTYPE svg PUBLIC "-//W3C//DTD SVG 20010904//EN"
 "http://www.w3.org/TR/2001/REC-SVG-20010904/DTD/svg10.dtd">
<svg version="1.0" xmlns="http://www.w3.org/2000/svg"
 width="256.000000pt" height="256.000000pt" viewBox="0 0 256.000000 256.000000"
 preserveAspectRatio="xMidYMid meet">

<g transform="translate(0.000000,256.000000) scale(0.100000,-0.100000)"
fill="#000000" stroke="none">
<path d="M404 2217 c-36 -20 -147 -153 -203 -242 -305 -484 -256 -1124 118
-1547 95 -108 122 -119 172 -69 42 43 38 70 -22 138 -163 184 -257 379 -294
603 -55 342 43 673 282 948 72 84 78 109 34 153 -32 31 -54 35 -87 16z"/>
<path d="M2069 2201 c-44 -44 -38 -69 34 -153 238 -274 337 -607 282 -948 -37
-224 -131 -419 -294 -603 -60 -68 -64 -95 -22 -138 50 -50 77 -39 172 69 422
477 423 1217 2 1703 -94 108 -124 120 -174 70z"/>
<path d="M1362 2113 c-11 -10 -154 -207 -316 -437 -318 -451 -322 -458 -273
-504 22 -21 33 -22 185 -22 104 0 162 -4 162 -10 0 -6 -34 -145 -75 -310 -41
-165 -75 -312 -75 -328 0 -60 82 -94 128 -54 17 14 555 743 674 911 47 67 50
110 12 140 -25 19 -40 21 -193 21 l-166 0 34 275 35 275 -21 28 c-25 34 -80
42 -111 15z"/>
<path d="M600 1964 c-103 -93 -211 -285 -252 -449 -32 -128 -32 -342 0 -470
41 -164 149 -356 252 -449 48 -44 86 -47 120 -11 37 40 31 75 -27 142 -94 108
-151 216 -189 353 -25 91 -25 309 0 400 38 137 95 245 189 353 58 67 64 102
27 142 -34 36 -72 33 -120 -11z"/>
<path d="M1840 1975 c-37 -40 -31 -75 27 -142 94 -108 151 -216 189 -353 25
-91 25 -309 0 -400 -38 -137 -95 -245 -189 -353 -36 -42 -50 -67 -50 -88 0
-38 38 -79 74 -79 88 0 268 273 321 485 32 128 32 342 0 470 -41 164 -149 356
-252 449 -48 44 -86 47 -120 11z"/>
</g>
</svg>
