<?xml version="1.0" standalone="no"?>
<!DOCTYPE svg PUBLIC "-//W3C//DTD SVG 20010904//EN"
 "http://www.w3.org/TR/2001/REC-SVG-20010904/DTD/svg10.dtd">
<svg version="1.0" xmlns="http://www.w3.org/2000/svg"
 width="256.000000pt" height="256.000000pt" viewBox="0 0 256.000000 256.000000"
 preserveAspectRatio="xMidYMid meet">

<g transform="translate(0.000000,256.000000) scale(0.100000,-0.100000)"
fill="#000000" stroke="none">
<path d="M1085 2544 c-215 -33 -446 -135 -613 -272 l-43 -35 63 -64 c34 -34
66 -63 70 -63 4 0 36 20 70 46 386 284 910 284 1296 0 34 -26 66 -46 70 -46 4
0 36 29 70 63 l63 64 -43 35 c-279 226 -649 327 -1003 272z"/>
<path d="M1185 2213 c-16 -2 -54 -8 -82 -14 l-53 -10 0 -476 c0 -332 4 -487
12 -514 15 -52 73 -117 122 -140 53 -24 139 -24 192 0 53 24 109 91 123 146 7
29 11 204 11 514 0 439 -1 470 -17 475 -67 19 -228 29 -308 19z m149 -883 c26
-25 25 -76 -2 -102 -45 -45 -125 -13 -125 51 0 70 75 100 127 51z"/>
<path d="M288 2088 c-312 -381 -375 -934 -156 -1373 121 -242 340 -461 583
-583 179 -90 343 -126 565 -126 226 0 386 36 575 132 235 118 453 338 573 577
219 439 156 992 -156 1373 l-35 43 -64 -63 c-34 -34 -63 -66 -63 -70 0 -4 20
-36 46 -70 176 -239 247 -539 198 -829 -78 -458 -435 -815 -893 -893 -517 -88
-1029 212 -1205 705 -124 346 -68 723 148 1017 26 34 46 66 46 70 0 4 -29 36
-63 70 l-64 63 -35 -43z"/>
<path d="M790 2078 c-111 -68 -248 -206 -314 -316 -103 -172 -149 -383 -127
-581 14 -130 61 -272 127 -383 62 -105 203 -248 304 -310 308 -191 686 -193
991 -6 110 68 248 206 313 316 222 373 162 841 -148 1147 -69 69 -231 185
-258 185 -4 0 -8 -190 -8 -422 0 -233 -5 -452 -10 -487 -18 -128 -99 -240
-215 -297 -55 -26 -69 -29 -165 -29 -93 0 -111 3 -162 27 -114 53 -197 167
-218 298 -5 37 -10 247 -10 488 0 232 -4 422 -8 422 -4 0 -46 -23 -92 -52z"/>
</g>
</svg>
